<?xml version="1.0" encoding="utf-8"?>
<!-- Generator: Adobe Illustrator 22.0.1, SVG Export Plug-In . SVG Version: 6.00 Build 0)  -->
<svg version="1.1" id="Layer_1" xmlns="http://www.w3.org/2000/svg" xmlns:xlink="http://www.w3.org/1999/xlink" x="0px" y="0px"
	 viewBox="0 0 1500 1500" style="enable-background:new 0 0 1500 1500;" xml:space="preserve">
<style type="text/css">
	.st0{fill:#717272;}
	.st1{fill:#4A4848;}
	.st2{fill:#135A2E;}
	.st3{fill:#0C8B44;}
	.st4{fill:#2DB24A;}
</style>
<g>
	<g>
		<g>
			<path class="st0" d="M371.9,636.3h-98.2v-23.6h74.9c0-27.1-10.5-42.8-31.4-47.4c-6.4-1.4-13.4-1.9-20.9-1.9v-21.1
				c11.4,0,18.6,0.2,21.5,0.4c2.9,0.2,7,1,12.4,2.9c27.7,9.3,41.6,31.6,41.8,67V636.3z"/>
			<path class="st0" d="M454.2,636.3h-27.1c-11.2,0-19.6-3.5-25.6-10.8c-5.6-6.6-8.3-15.5-8.3-26.9v-95.7h23v86.4
				c0,10.1,2.3,16.7,6.6,19.9c3.1,2.3,9.1,3.5,17.8,3.5h13.6V636.3z"/>
			<path class="st0" d="M582,636.3h-29.6c-8.9,12-21.3,18-37.4,18c-15.9,0-28.1-6-37-18h-31.6v-23.6h22.3c-0.2-2.3-0.2-4.5-0.2-6.8
				c0-13.9,4.3-25.2,12.8-34.1c8.7-8.9,19.9-13.4,33.7-13.4c13.9,0,25,4.5,33.5,13.9s12.8,20.7,12.8,34.5v6H582V636.3z M537.5,606.5
				c0-7.2-1.9-13.6-5.6-18.8c-4.3-5.6-10.3-8.5-17.6-8.5c-7,0-12.6,2.7-16.7,8.3c-3.5,4.8-5.4,11-5.4,18.2
				c0,14.9,9.1,27.1,23.4,27.1c7,0,12.6-2.7,16.5-7.9C535.7,620.2,537.5,614,537.5,606.5z"/>
			<path class="st0" d="M596.7,523.2h-22.7v-23h22.7V523.2z M670.7,636.3h-95.5v-23.6h21.5c6.8,0,11.4-2.3,13.9-7
				c1.7-3.1,2.5-8.5,2.5-15.7v-47.6h23v46.3c0,12.2-1.7,20.1-5,24h39.7V636.3z M635.9,523.2h-22.7v-23h22.7V523.2z"/>
			<path class="st0" d="M780.1,636.3H665.5v-23.6h30c-3.1-6.8-4.5-14.1-4.5-21.7c0-13.9,4.3-25.6,13.2-35.4s20.5-14.5,34.3-14.5
				c18.2,0,33.7,9.9,40.5,26.7l-19.8,9.5c-3.5-10.5-10.8-15.9-21.7-15.9c-7.7,0-13.4,3.1-17.6,9.1c-3.7,5.4-5.6,12-5.6,20.1
				c0,9.3,2.5,16.5,7.4,22.1h58.3V636.3z"/>
			<path class="st0" d="M824.3,636.3h-23V502.7h23V636.3z"/>
		</g>
		<g>
			<path class="st1" d="M389,760.9v-51.9h7.3l16.6,26.3c3.9,6.1,6.9,11.6,9.3,16.9l0.2-0.1c-0.6-6.9-0.8-13.3-0.8-21.3v-21.7h6.3
				v51.9h-6.8l-16.5-26.4c-3.6-5.8-7.1-11.7-9.7-17.3l-0.2,0.1c0.4,6.6,0.5,12.8,0.5,21.4v22.2H389z"/>
			<path class="st1" d="M476,759.2c-2.5,1.2-7.4,2.5-13.7,2.5c-14.6,0-25.7-9.2-25.7-26.3c0-16.3,11-27.3,27.1-27.3
				c6.5,0,10.6,1.4,12.3,2.3l-1.6,5.5c-2.5-1.2-6.2-2.2-10.5-2.2c-12.2,0-20.3,7.8-20.3,21.4c0,12.7,7.3,20.9,20,20.9
				c4.1,0,8.2-0.8,10.9-2.2L476,759.2z"/>
			<path class="st1" d="M493.1,744.5l-5.4,16.3h-6.9l17.6-51.9h8.1l17.7,51.9h-7.2l-5.5-16.3H493.1z M510.2,739.3l-5.1-15
				c-1.2-3.4-1.9-6.5-2.7-9.5h-0.2c-0.8,3.1-1.6,6.2-2.6,9.4l-5.1,15H510.2z"/>
			<path class="st1" d="M540.3,744.5l-5.4,16.3h-6.9l17.6-51.9h8.1l17.7,51.9h-7.2l-5.5-16.3H540.3z M557.3,739.3l-5.1-15
				c-1.2-3.4-1.9-6.5-2.7-9.5h-0.2c-0.8,3.1-1.6,6.2-2.6,9.4l-5.1,15H557.3z"/>
			<path class="st1" d="M587.4,744.5l-5.4,16.3h-6.9l17.6-51.9h8.1l17.7,51.9h-7.2l-5.5-16.3H587.4z M604.5,739.3l-5.1-15
				c-1.2-3.4-1.9-6.5-2.7-9.5h-0.2c-0.8,3.1-1.6,6.2-2.6,9.4l-5.1,15H604.5z"/>
		</g>
	</g>
	<g>
		
			<rect x="454.8" y="993.7" transform="matrix(0.7071 -0.7071 0.7071 0.7071 -588.5316 658.7111)" class="st2" width="92.2" height="92.2"/>
		<polygon class="st2" points="581.5,1024.3 646.7,959.2 581.5,894 581.5,894 516.3,959.2 516.3,959.2 581.5,1024.3 		"/>
		<polygon class="st2" points="662.1,943.7 727.3,878.5 727.3,878.5 662.1,813.4 662.1,813.4 596.9,878.5 596.9,878.5 662.1,943.7 
					"/>
		
			<rect x="696.6" y="751.8" transform="matrix(0.7071 -0.7071 0.7071 0.7071 -346.6826 758.8882)" class="st2" width="92.2" height="92.2"/>
		
			<rect x="374.2" y="913.1" transform="matrix(0.7071 -0.7071 0.7071 0.7071 -555.142 578.0945)" class="st2" width="92.2" height="92.2"/>
		<polygon class="st2" points="404.8,878.5 339.6,813.4 339.6,813.4 274.5,878.5 274.5,878.5 339.6,943.7 404.8,878.5 		"/>
		
			<rect x="212.9" y="751.8" transform="matrix(0.7071 -0.7071 0.7071 0.7071 -488.3559 416.8586)" class="st2" width="92.2" height="92.2"/>
		
			<rect x="777.3" y="671.2" transform="matrix(0.7071 -0.7071 0.7071 0.7071 -266.0681 792.2826)" class="st2" width="92.2" height="92.2"/>
		
			<rect x="857.9" y="590.6" transform="matrix(0.7071 -0.7071 0.7071 0.7071 -185.4467 825.6743)" class="st2" width="92.2" height="92.2"/>
		
			<rect x="938.5" y="510" transform="matrix(0.7071 -0.7071 0.7071 0.7071 -104.8322 859.0687)" class="st2" width="92.2" height="92.2"/>
		<polygon class="st2" points="1065.2,540.6 1130.4,475.5 1130.4,475.5 1065.2,410.3 1065.2,410.3 1000,475.5 1000,475.5 
			1065.2,540.6 		"/>
		<polygon class="st2" points="1145.8,460 1211,394.8 1211,394.8 1145.8,329.7 1145.8,329.7 1080.6,394.8 1145.8,460 		"/>
		
			<rect x="1180.3" y="268.1" transform="matrix(0.7071 -0.7071 0.7071 0.7071 137.0168 959.2458)" class="st2" width="92.2" height="92.2"/>
		
			<rect x="1261" y="187.5" transform="matrix(0.7071 -0.7071 0.7071 0.7071 217.6382 992.6375)" class="st2" width="92.2" height="92.2"/>
		
			<rect x="1341.6" y="106.9" transform="matrix(0.7071 -0.7071 0.7071 0.7071 298.2527 1026.032)" class="st2" width="92.2" height="92.2"/>
		
			<rect x="378.8" y="1078.9" transform="matrix(0.7071 -0.7071 0.7071 0.7071 -669.153 625.3194)" class="st3" width="83" height="83"/>
		
			<rect x="459.4" y="1159.5" transform="matrix(0.7071 -0.7071 0.7071 0.7071 -702.5425 705.9359)" class="st3" width="83" height="83"/>
		
			<rect x="298.2" y="998.3" transform="matrix(0.7071 -0.7071 0.7071 0.7071 -635.7565 544.7001)" class="st3" width="83" height="83"/>
		
			<rect x="217.5" y="917.7" transform="matrix(0.7071 -0.7071 0.7071 0.7071 -602.3668 464.0835)" class="st3" width="83" height="83"/>
		<polygon class="st3" points="237.1,878.5 178.4,819.9 119.7,878.5 119.7,878.5 178.4,937.2 237.1,878.5 		"/>
		
			<rect x="540" y="1078.9" transform="matrix(0.7071 -0.7071 0.7071 0.7071 -621.9283 739.3297)" class="st3" width="83" height="83"/>
		
			<rect x="620.6" y="998.3" transform="matrix(0.7071 -0.7071 0.7071 0.7071 -541.3221 772.7837)" class="st3" width="83" height="83"/>
		
			<rect x="701.2" y="917.7" transform="matrix(0.7071 -0.7071 0.7071 0.7071 -460.6936 806.113)" class="st3" width="83" height="83"/>
		<polygon class="st3" points="823.3,937.2 882,878.5 882,878.5 823.3,819.9 764.7,878.5 764.7,878.5 		"/>
		
			<rect x="862.5" y="756.5" transform="matrix(0.7071 -0.7071 0.7071 0.7071 -299.4577 872.8992)" class="st3" width="83" height="83"/>
		
			<rect x="943.1" y="675.8" transform="matrix(0.7071 -0.7071 0.7071 0.7071 -218.8432 906.2936)" class="st3" width="83" height="83"/>
		
			<rect x="1023.7" y="595.2" transform="matrix(0.7071 -0.7071 0.7071 0.7071 -138.2221 939.6845)" class="st3" width="83" height="83"/>
		
			<rect x="1104.3" y="514.6" transform="matrix(0.7071 -0.7071 0.7071 0.7071 -57.5861 973.1414)" class="st3" width="83" height="83"/>
		<polygon class="st3" points="1226.4,534.1 1285.1,475.5 1285.1,475.5 1226.4,416.8 1167.8,475.5 1167.8,475.5 		"/>
		
			<rect x="1265.6" y="353.4" transform="matrix(0.7071 -0.7071 0.7071 0.7071 103.6272 1039.8624)" class="st3" width="83" height="83"/>
		
			<rect x="1346.2" y="272.8" transform="matrix(0.7071 -0.7071 0.7071 0.7071 184.2417 1073.2568)" class="st3" width="83" height="83"/>
		
			<rect x="302.8" y="1164.1" transform="matrix(0.7071 -0.7071 0.7071 0.7071 -749.7675 591.9249)" class="st4" width="73.7" height="73.7"/>
		
			<rect x="383.4" y="1244.8" transform="matrix(0.7071 -0.7071 0.7071 0.7071 -783.1639 672.5443)" class="st4" width="73.7" height="73.7"/>
		
			<rect x="464" y="1325.4" transform="matrix(0.7071 -0.7071 0.7071 0.7071 -816.5535 753.1608)" class="st4" width="73.7" height="73.7"/>
		
			<rect x="222.1" y="1083.5" transform="matrix(0.7071 -0.7071 0.7071 0.7071 -716.3778 511.3084)" class="st4" width="73.7" height="73.7"/>
		<polygon class="st4" points="230.5,1039.8 178.4,987.6 178.4,987.6 126.3,1039.8 178.4,1091.9 178.4,1091.9 230.5,1039.8 		"/>
		<polygon class="st4" points="149.9,959.2 97.8,907 97.8,907 45.6,959.2 45.6,959.2 97.8,1011.3 97.8,1011.3 		"/>
		<polygon class="st4" points="581.5,1333.8 633.6,1281.6 581.5,1229.5 581.5,1229.5 529.3,1281.6 529.3,1281.6 581.5,1333.8 		"/>
		<polygon class="st4" points="662.1,1253.2 714.2,1201 714.2,1201 662.1,1148.9 662.1,1148.9 610,1201 662.1,1253.2 		"/>
		
			<rect x="705.9" y="1083.5" transform="matrix(0.7071 -0.7071 0.7071 0.7071 -574.7045 853.338)" class="st4" width="73.7" height="73.7"/>
		
			<rect x="786.5" y="1002.9" transform="matrix(0.7071 -0.7071 0.7071 0.7071 -494.0832 886.7296)" class="st4" width="73.7" height="73.7"/>
		
			<rect x="867.1" y="922.3" transform="matrix(0.7071 -0.7071 0.7071 0.7071 -413.4687 920.124)" class="st4" width="73.7" height="73.7"/>
		<polygon class="st4" points="984.6,930.7 1036.7,878.5 1036.7,878.5 984.6,826.4 984.6,826.4 932.4,878.5 932.4,878.5 		"/>
		<polygon class="st4" points="1065.2,850.1 1117.3,797.9 1065.2,745.8 1065.2,745.8 1013.1,797.9 1013.1,797.9 1065.2,850.1 		"/>
		
			<rect x="1108.9" y="680.4" transform="matrix(0.7071 -0.7071 0.7071 0.7071 -171.6032 1020.3723)" class="st4" width="73.7" height="73.7"/>
		
			<rect x="1189.6" y="599.8" transform="matrix(0.7071 -0.7071 0.7071 0.7071 -90.9983 1053.6927)" class="st4" width="73.7" height="73.7"/>
		
			<rect x="1270.2" y="519.2" transform="matrix(0.7071 -0.7071 0.7071 0.7071 -10.3838 1087.0873)" class="st4" width="73.7" height="73.7"/>
		<polygon class="st4" points="1387.7,527.6 1439.8,475.5 1439.8,475.5 1387.7,423.3 1335.5,475.5 1335.5,475.5 1387.7,527.6 		"/>
	</g>
</g>
</svg>
